<svg width="100" height="100" viewBox="0 0 100 100" fill="none" xmlns="http://www.w3.org/2000/svg">
<rect x="0.5" y="0.5" width="99" height="99" fill="#1F1F21"/>
<rect x="0.5" y="0.5" width="99" height="99" stroke="#1F1F21"/>
<path d="M50 18.5C51.4625 18.5 52.9157 19.2889 54.2969 20.8467C55.6774 22.4039 56.9441 24.6854 58.0176 27.5479C60.1632 33.2694 61.5 41.2075 61.5 50C61.5 58.7925 60.1632 66.7306 58.0176 72.4521C56.9441 75.3146 55.6774 77.5961 54.2969 79.1533C52.9157 80.7111 51.4625 81.5 50 81.5C48.5375 81.5 47.0843 80.7111 45.7031 79.1533C44.3226 77.5961 43.0559 75.3146 41.9824 72.4521C39.8368 66.7306 38.5 58.7925 38.5 50C38.5 41.2075 39.8368 33.2694 41.9824 27.5479C43.0559 24.6854 44.3226 22.4039 45.7031 20.8467C47.0843 19.2889 48.5375 18.5 50 18.5Z" stroke="url(#paint0_linear_422_144)"/>
<path d="M50 38.5C58.7925 38.5 66.7306 39.8368 72.4521 41.9824C75.3146 43.0559 77.5961 44.3226 79.1533 45.7031C80.7111 47.0843 81.5 48.5375 81.5 50C81.5 51.4625 80.7111 52.9157 79.1533 54.2969C77.5961 55.6774 75.3146 56.9441 72.4521 58.0176C66.7306 60.1632 58.7925 61.5 50 61.5C41.2075 61.5 33.2694 60.1632 27.5479 58.0176C24.6854 56.9441 22.4039 55.6774 20.8467 54.2969C19.2889 52.9157 18.5 51.4625 18.5 50C18.5 48.5375 19.2889 47.0843 20.8467 45.7031C22.4039 44.3226 24.6854 43.0559 27.5479 41.9824C33.2694 39.8368 41.2075 38.5 50 38.5Z" stroke="url(#paint1_linear_422_144)"/>
<path d="M27.7258 27.7258C28.7599 26.6916 30.3459 26.222 32.424 26.3469C34.5013 26.4718 37.0101 27.1903 39.7932 28.4553C45.356 30.9839 51.9148 35.6512 58.132 41.8684C64.3491 48.0855 69.0165 54.6444 71.5451 60.2072C72.8101 62.9903 73.5277 65.4991 73.6525 67.5764C73.7774 69.6545 73.3078 71.2395 72.2736 72.2736C71.2395 73.3078 69.6545 73.7775 67.5764 73.6526C65.4991 73.5277 62.9903 72.8101 60.2072 71.5451C54.6444 69.0166 48.0855 64.3492 41.8683 58.132C35.6512 51.9149 30.9839 45.3561 28.4553 39.7932C27.1902 37.0101 26.4718 34.5013 26.3469 32.424C26.2219 30.3459 26.6916 28.7599 27.7258 27.7258Z" stroke="url(#paint2_linear_422_144)"/>
<path d="M67.5764 26.3469C69.6544 26.222 71.2395 26.6919 72.2737 27.7258C73.3078 28.76 73.7775 30.3459 73.6526 32.4241C73.5276 34.5014 72.8102 37.0102 71.5452 39.7932C69.0166 45.3561 64.3493 51.9149 58.1321 58.1321C51.9149 64.3493 45.3561 69.0166 39.7932 71.5452C37.0102 72.8102 34.5014 73.5277 32.4241 73.6526C30.3459 73.7775 28.76 73.3078 27.7258 72.2737C26.6919 71.2395 26.222 69.6544 26.3469 67.5764C26.4718 65.4991 27.1903 62.9904 28.4553 60.2073C30.9839 54.6444 35.6512 48.0856 41.8684 41.8684C48.0856 35.6512 54.6444 30.9839 60.2073 28.4553C62.9904 27.1903 65.4991 26.4718 67.5764 26.3469Z" stroke="url(#paint3_linear_422_144)"/>
<defs>
<linearGradient id="paint0_linear_422_144" x1="50" y1="18" x2="50" y2="82" gradientUnits="userSpaceOnUse">
<stop stop-color="#FDCA3B"/>
<stop offset="1" stop-color="#FDCA3B" stop-opacity="0"/>
</linearGradient>
<linearGradient id="paint1_linear_422_144" x1="18" y1="50" x2="82" y2="50" gradientUnits="userSpaceOnUse">
<stop stop-color="#FDCA3B"/>
<stop offset="1" stop-color="#FDCA3B" stop-opacity="0"/>
</linearGradient>
<linearGradient id="paint2_linear_422_144" x1="27.3725" y1="27.3726" x2="72.6274" y2="72.6274" gradientUnits="userSpaceOnUse">
<stop stop-color="#FDCA3B"/>
<stop offset="1" stop-color="white" stop-opacity="0"/>
</linearGradient>
<linearGradient id="paint3_linear_422_144" x1="72.6275" y1="27.3726" x2="27.3727" y2="72.6275" gradientUnits="userSpaceOnUse">
<stop stop-color="#FDCA3B"/>
<stop offset="1" stop-color="#FDCA3B" stop-opacity="0"/>
</linearGradient>
</defs>
</svg>
